<?xml version="1.0" encoding="iso-8859-1"?>
<!-- Generator: Adobe Illustrator 16.0.0, SVG Export Plug-In . SVG Version: 6.00 Build 0)  -->
<!DOCTYPE svg PUBLIC "-//W3C//DTD SVG 1.1//EN" "http://www.w3.org/Graphics/SVG/1.1/DTD/svg11.dtd">
<svg fill="#00ddf7" version="1.1" id="Capa_1" xmlns="http://www.w3.org/2000/svg" xmlns:xlink="http://www.w3.org/1999/xlink" x="0px" y="0px"
	 width="126.551px" height="126.551px" viewBox="0 0 126.551 126.551" style="enable-background:new 0 0 126.551 126.551;"
	 xml:space="preserve">
<g>
	<path d="M117.775,66.551h-10.7c-3.6,0-6.7,2.3-7.5,5.8l-3.899,18.1c-0.801,3.5-3.9,6.101-7.5,6.101h-49.8c-3.6,0-6.7-2.7-7.5-6.2
		l-3.9-17.9c-0.8-3.5-3.9-5.899-7.5-5.899h-10.7c-4.3,0-7.5,3-7.5,7.2v44.899c0,4.2,3.2,7.9,7.6,7.9h109.1c4.1,0,7.3-3.7,7.3-7.9
		V73.751C125.275,69.551,122.075,66.551,117.775,66.551z"/>
	<path d="M19.476,39.75l36.4-36.3c4.6-4.6,11.5-4.6,16.1,0l36.3,36.3c4.6,4.6,4.8,11.8,0.2,16.4c-4.5,4.5-12,4-16.3-0.3
		l-16.301-16.4v38.601c0,3.2-1.3,6.3-3.699,8.5c-5.601,5.3-15.4,3.899-19.101-2.9c-0.9-1.7-1.4-3.6-1.4-5.6V39.45l-16.3,16.3
		c-4.3,4.3-11.8,4.8-16.3,0.3C14.675,51.55,14.875,44.35,19.476,39.75z"/>
</g>
<g>
</g>
<g>
</g>
<g>
</g>
<g>
</g>
<g>
</g>
<g>
</g>
<g>
</g>
<g>
</g>
<g>
</g>
<g>
</g>
<g>
</g>
<g>
</g>
<g>
</g>
<g>
</g>
<g>
</g>
</svg>
